<svg width="34" height="34" viewBox="0 0 34 34" fill="none" xmlns="http://www.w3.org/2000/svg">
<path fill-rule="evenodd" clip-rule="evenodd" d="M10.625 1.41666C11.4074 1.41666 12.0417 2.05093 12.0417 2.83333V4.25H21.9583V2.83333C21.9583 2.05093 22.5926 1.41666 23.375 1.41666C24.1574 1.41666 24.7917 2.05093 24.7917 2.83333V4.28497C28.3711 4.64036 31.1667 7.66038 31.1667 11.3333V24.0833C31.1667 27.9953 27.9954 31.1667 24.0833 31.1667H9.91668C6.00466 31.1667 2.83334 27.9953 2.83334 24.0833V11.3333C2.83334 7.66038 5.62891 4.64036 9.20834 4.28497V2.83333C9.20834 2.05093 9.84261 1.41666 10.625 1.41666ZM5.90851 9.91666H28.0915C27.5081 8.26597 25.9338 7.08333 24.0833 7.08333H9.91668C8.0662 7.08333 6.49194 8.26597 5.90851 9.91666ZM28.3333 12.75H5.66668V24.0833C5.66668 26.4305 7.56947 28.3333 9.91668 28.3333H24.0833C26.4306 28.3333 28.3333 26.4305 28.3333 24.0833V12.75ZM8.50001 17C8.50001 16.2176 9.13427 15.5833 9.91668 15.5833H15.5833C16.3657 15.5833 17 16.2176 17 17V22.6667C17 23.4491 16.3657 24.0833 15.5833 24.0833H9.91668C9.13427 24.0833 8.50001 23.4491 8.50001 22.6667V17ZM14.1667 18.4167H11.3333V21.25H14.1667V18.4167Z" fill="#495E57"/>
</svg>
