<svg width="34" height="34" viewBox="0 0 34 34" fill="none" xmlns="http://www.w3.org/2000/svg">
<path fill-rule="evenodd" clip-rule="evenodd" d="M17 5.66667C10.7408 5.66667 5.66667 10.7408 5.66667 17C5.66667 23.2592 10.7408 28.3333 17 28.3333C23.2592 28.3333 28.3333 23.2592 28.3333 17C28.3333 10.7408 23.2592 5.66667 17 5.66667ZM2.83334 17C2.83334 9.17597 9.17597 2.83334 17 2.83334C24.824 2.83334 31.1667 9.17597 31.1667 17C31.1667 24.824 24.824 31.1667 17 31.1667C9.17597 31.1667 2.83334 24.824 2.83334 17ZM17 8.5C17.7824 8.5 18.4167 9.13427 18.4167 9.91667V15.5833H24.0833C24.8657 15.5833 25.5 16.2176 25.5 17C25.5 17.7824 24.8657 18.4167 24.0833 18.4167H17C16.2176 18.4167 15.5833 17.7824 15.5833 17V9.91667C15.5833 9.13427 16.2176 8.5 17 8.5Z" fill="#495E57"/>
</svg>
